<?xml version="1.0" encoding="UTF-8"?>
<svg version="1.1" viewBox="0 0 1200 1200" width="1280" height="1280" xmlns="http://www.w3.org/2000/svg">
<path transform="translate(91,419)" d="m0 0h1033l1 1v360l-301 1h-731l-3-1v-360zm15 16-1 1v328l1 1h343l1-1v-329zm438 210 1 2zm-57 30-6 12v3l5-1 4-10-1-4z" fill="#28CC9D"/>
<path transform="translate(279,450)" d="m0 0 5 2 21 11 14 8 1 1v7l2-1h6l29 16 7 4 1 2v6l6-2 27 15 11 6 1 1v44l-5 3-1 2 5 2 1 1v44l-5 3-1 2 6 3v44l-10 6-22 12-7 4-5-1-2-1v8l-24 13-12 7-9-1 1 7-8 5-12 7-14 7-5 3-4-1-11-6-21-11-5-3v-8l-6 2-19-10-19-11-1-1v-7l-4 2-4-1-26-14-11-6v-45l4-3h2v-2l-5-2-1-1v-44l4-3h2l-3-3-3-2v-44l9-6 28-15 4-1 4 2v-8l26-14 14-7 5 2v-8l24-13 12-7zm-4 85-1 5-1 3-25 14-11 6h-8l-1 7-5 3v2l6 2v46l-6 2v2l6 4v6l2 1 6-1 29 16 8 5v7l8-1h3l1-7 24-13 12-7h8l1-7 5-3-1-3-4-2v-44l5-3-1-3-4-2-1-7h-8l-25-14-11-6-1-8-7 1z" fill="#21A27F"/>
<path transform="translate(150,527)" d="m0 0 6 2 32 18 5-1 29-16 5-3h2l1 14v18l-1 11-5 3-1 2 6 2 1 3v31l-1 12-6 2v2l5 2 2 3-1 7-24 13-9 5-1 36-4 3-4-1-26-14-11-6v-45l4-3h2v-2l-5-2-1-1v-44l4-3h2l-3-3-3-2z" fill="#21A27F"/>
<path transform="translate(279,450)" d="m0 0 5 2 21 11 14 8 1 1v7l2-1h6l29 16 7 4v2l-28 15-10 6-6-2-26-14-9-5v34l-3 3-7-1v6l-9 6-18 10-11 6-8-1v-36l-38 21-5-1-23-13-13-7 4-4 24-13 10-6 4 1 3 1v-8l26-14 14-7 5 2v-8l24-13 12-7z" fill="#166952"/>
<path transform="translate(812,501)" d="m0 0h45l13 3 10 5 6 5 6 9 4 11v18l-4 11-4 6-5 5-5 4-8 4-13 3h-45z" fill="#FEFEFE"/>
<path transform="translate(233,636)" d="m0 0 6 1 27 15 9 6-1 8-29 16-4 1v3l6 2 10 6 14 7 9 5 1 44-4-1-11-6-21-11-5-3v-8l-6 2-19-10-19-11-1-1-1-8 1-36 23-13 9-5h2l1-2z" fill="#22A380"/>
<path transform="translate(285,658)" d="m0 0 16 8 22 12 5-1 28-15 8-4 1 31-1 13-24 13-12 7-9-1 1 7-8 5-12 7-14 7-3 2h-3v-43l-6-2-14-8-11-6-8-4v-3l19-10 18-10 7 1z" fill="#28CB9C"/>
<path transform="translate(336,625)" d="m0 0 5 2 27 15 2 1 27-15 5-3h2v2l6 3v44l-10 6-22 12-7 4-5-1-2-1v-14l-1-21-26 14-11 6-5-1-24-13-12-7 3-3 29-16 5-3 8 1v-7l4-3h2z" fill="#29CB9D"/>
<path transform="translate(758,520)" d="m0 0h16l9 4 8 7 5 8 2 9v10l-3 10-6 9-5 4-9 4-5 1h-8l-10-3-6-4v29h-18v-87h17v6l10-6z" fill="#FEFEFE"/>
<path transform="translate(336,573)" d="m0 0 5 2 26 14 4 1 26-14 5-3h2v2l5 2 1 1v44l-19 10-21 12-15-8-17-10-8-4v-44l4-3h2z" fill="#21A27F"/>
<path transform="translate(234,477)" d="m0 0 7 3 26 14 7 4-4 4-24 13-10 6-1 43-6-1v-36l-38 21-5-1-23-13-13-7 4-4 24-13 10-6 4 1 3 1v-8l26-14z" fill="#29CB9D"/>
<path transform="translate(671,520)" d="m0 0h17l11 4 10 9 4 8 2 9-1 11-4 10-5 6-9 6-12 3h-10l-13-4-8-6-6-8-3-9v-12l3-10 6-8 9-6z" fill="#FEFEFE"/>
<path transform="translate(150,527)" d="m0 0 6 2 32 18 5-1 29-16 5-3h2l1 14v18l-1 11-23 13-15 8-5-1-18-10-10-6-8-4z" fill="#21A27F"/>
<path transform="translate(510,500)" d="m0 0h20l12 3 7 3-1 6-4 9-9-3-9-2h-12l-8 4-1 7 4 4 14 4 16 5 8 5 4 5 2 5v10l-3 8-5 5-5 4-8 3-4 1h-21l-15-4-8-5 3-9 2-5 5 1 12 5 5 1h13l7-3 2-3v-5l-5-4-18-5-14-5-8-7-3-8v-8l3-8 7-8 8-4z" fill="#FEFEFE"/>
<path transform="translate(566,496)" d="m0 0h18l1 30 6-4 6-2h15l10 4 6 7 3 8 1 17v29h-19l-1-40-3-6-4-2h-11l-6 4-3 8-1 36h-18z" fill="#FEFEFE"/>
<path transform="translate(150,631)" d="m0 0 6 2 32 18 5-1 29-16 5-3 3 1-1 7-24 13-9 5-1 36-4 3-4-1-26-14-11-6z" fill="#21A380"/>
<path transform="translate(831,517)" d="m0 0h25l9 3 7 6 4 8 1 4v10l-3 9-6 7-8 4-4 1h-25z" fill="#28CC9D"/>
<path transform="translate(364,500)" d="m0 0h1v6l6-2 27 15 11 6 1 1v44h-1v-43l-38 21-5-1-23-13-13-7 4-4 28-15h2z" fill="#2BCC9E"/>
<path transform="translate(319,472)" d="m0 0h1v7l2-1h6l29 16 7 4v2l-28 15-10 6-6-2-26-14-9-5 4-4 28-15 1-1z" fill="#29CB9D"/>
<path transform="translate(234,477)" d="m0 0 7 3 26 14 7 4-4 4-24 13-10 6-6-2-26-14-9-6 4-3 29-16z" fill="#29CC9D"/>
<path transform="translate(279,450)" d="m0 0 5 2 21 11 14 8-4 4-26 14-10 5-28-15-11-7 4-3 18-10 14-8z" fill="#29CC9D"/>
<path transform="translate(233,636)" d="m0 0 6 1 27 15 8 5-3 3-26 14-9 5-5-1-24-13-11-6v-3l26-14 5-3h2l1-2z" fill="#28CB9C"/>
<path transform="translate(240,684)" d="m0 0 1 2 6 2 10 6 14 7 9 5 1 44-4-1-11-6-21-11-5-3-1-9z" fill="#22A380"/>
<path transform="translate(285,500)" d="m0 0 6 2 29 16 5 3v43l-5-1-23-13-12-7-1-9z" fill="#22A380"/>
<path transform="translate(407,631)" d="m0 0h2l1 43-10 6-22 12-5 3h-3l-1-8v-24l1-11 14-8z" fill="#166A53"/>
<path transform="translate(318,685)" d="m0 0h1l1 32v11l-8 5-12 7-14 7-3 2h-3v-43l23-13z" fill="#166952"/>
<path transform="translate(227,579)" d="m0 0 3 1v31l-1 12-16 8-21 12h-2v-43l14-8z" fill="#186A53"/>
<path transform="translate(407,579)" d="m0 0h2l1 43-19 10-19 11h-2l-1-16v-24l2-4 24-13z" fill="#156851"/>
<path transform="translate(363,658)" d="m0 0h1l1 31-1 13-24 13-12 7h-3v-43l23-13z" fill="#166952"/>
<path transform="translate(407,527)" d="m0 0h2v43l-7 4-24 13-8 4-1-6v-34l2-4 24-13z" fill="#156851"/>
<path transform="translate(227,527)" d="m0 0h2l1 14v18l-1 11-23 13-16 8v-43l14-8z" fill="#156851"/>
<path transform="translate(714,642)" d="m0 0h11l10 5 5 7 2 7-1 10-5 8-5 4-9 3-10-1-8-5-5-6-2-7 1-11 6-9z" fill="#28CC9D"/>
<path transform="translate(240,472)" d="m0 0 11 6 28 15 16-8 23-13h1v8l-8 5-24 13-1 1-1 35-3 3-8-1v-24l-1-13-17-10-16-9z" fill="#21A27F"/>
<path transform="translate(757,535)" d="m0 0h11l6 4 4 5 1 3v11l-4 8-6 4-9 1-7-3-5-5-2-5v-11l5-8z" fill="#28CC9D"/>
<path transform="translate(674,535)" d="m0 0h11l6 4 4 6 1 3v9l-3 7-5 5-6 2-9-1-6-4-4-7v-12l3-6 6-5z" fill="#28CC9D"/>
<path transform="translate(504,638)" d="m0 0h6l15 32 8 18v2h-5l-6-12v-2l-30 1-2 2-1-3-2-2 16-35z" fill="#FEFEFE"/>
<path transform="translate(1047,650)" d="m0 0 8 1 7 4 4 5 2 7v5h-33l3 8 6 4 9 1 7-3 3-1 2 4-6 4-3 1h-12l-8-4-4-5-2-4v-13l3-6 5-5z" fill="#FEFEFE"/>
<path transform="translate(823,650)" d="m0 0 8 1 7 4 4 5 2 7v5h-33l3 8 6 4 9 1 7-3 3-1 2 4-6 4-3 1h-12l-8-4-4-5-2-4v-13l3-6 5-5z" fill="#FEFEFE"/>
<path transform="translate(960,650)" d="m0 0 9 1 5 3 4 6v30h-5l-1-4-7 4h-11l-7-4-2-5 1-7 5-5 3-1h19l-2-9-4-3h-11l-6 3-3-1 1-4 6-3z" fill="#FEFEFE"/>
<path transform="translate(715,637)" d="m0 0h9l11 4 7 6 4 8 1 4v10l-4 10-7 7-9 4h-15l-10-5-7-8-3-8v-10l3-9 7-8 8-4zm-1 5-10 5-6 9-1 11 3 8 6 7 6 3 10 1 9-3 7-6 3-6 1-10-3-9-4-5-10-5z" fill="#FEFEFE"/>
<path transform="translate(881,642)" d="m0 0h18l8 3 4 6v9l-4 6-9 3h-17z" fill="#28CC9D"/>
<path transform="translate(336,573)" d="m0 0 5 2 26 14 4 1 26-14 5-3h2v2l5 2 1 1v34h-1v-33l-38 21-5-1-23-13-13-7 4-4h2z" fill="#35CDA1"/>
<path transform="translate(336,625)" d="m0 0 5 2 27 15 2 1 27-15 5-3h2v2l6 3v32h-1v-31l-38 21-5-1-23-13-13-7 4-4h2z" fill="#33CDA1"/>
<path transform="translate(156,573)" d="m0 0 5 2 24 13 3 2 5-1 24-13 6-3v2l6 2v2l-38 21-5-1-23-13-13-7 4-4h2z" fill="#29CA9C"/>
<path transform="translate(876,638)" d="m0 0h27l8 4 4 5 2 9-2 8-5 6-8 3h-21v17h-5zm5 4v27h17l9-3 4-6v-9l-4-6-8-3z" fill="#FEFEFE"/>
<path transform="translate(156,625)" d="m0 0 5 2 27 15 2 1 27-15 6-3v2l5 2 1 2-38 21-5-1-23-13-13-7 4-4h2z" fill="#29CA9C"/>
<path transform="translate(330,631)" d="m0 0 5 2 19 10 16 9v36l1 8-5-1-2-1v-14l-1-23-22-12-10-6-1-1z" fill="#21A27F"/>
<path transform="translate(285,658)" d="m0 0 16 8 24 13v43l-6-1v-13l-1-24-26-14-7-4z" fill="#21A27F"/>
<path transform="translate(195,499)" d="m0 0 15 8 24 13 1 1v43l-6-1v-38l-6-2-23-13-5-3z" fill="#21A27F"/>
<path transform="translate(776,650)" d="m0 0 9 1 6 4 3 5 1 5v25h-6v-23l-3-9-4-2h-9l-5 3-3 5-1 26h-5v-39h4v6h2l1-3 6-3z" fill="#FEFEFE"/>
<path transform="translate(642,650)" d="m0 0 9 1 6 4 3 5 1 5v25h-6v-23l-3-9-4-2h-9l-5 3-3 5-1 26h-5v-39h4v6h2l1-3 6-3z" fill="#FEFEFE"/>
<path transform="translate(273,658)" d="m0 0h2l-1 8-29 16-4 2-1 36-2 2h-3v-43l18-10z" fill="#176953"/>
<path transform="translate(227,631)" d="m0 0 3 1-1 7-24 13-9 5-1 36-2 2h-3v-43l14-8z" fill="#166952"/>
<path transform="translate(318,472)" d="m0 0h1v8l-8 5-24 13-1 1-1 35-3 3h-2v-44l28-15z" fill="#156851"/>
<path transform="translate(362,500)" d="m0 0h2v8l-21 11-12 7-1 36-5 2v-43l8-5 24-13z" fill="#156851"/>
<path transform="translate(1006,650)" d="m0 0 10 1 6 4 2 3-2 2-4-1-5-3h-9l-6 4-3 5v11l4 6 7 3 9-1 6-4 3 3-5 5-5 2h-11l-8-4-4-5-2-4v-13l3-6 7-6z" fill="#FEFEFE"/>
<path transform="translate(506,644)" d="m0 0h2l11 25v3h-24l1-6z" fill="#28CC9D"/>
<path transform="translate(1044,655)" d="m0 0h10l7 6 2 4v3h-28l1-6 4-5z" fill="#28CC9D"/>
<path transform="translate(820,655)" d="m0 0h10l7 6 2 4v3h-28l1-6 4-5z" fill="#28CC9D"/>
<path transform="translate(929,634)" d="m0 0 5 1v55h-5z" fill="#FEFEFE"/>
<path transform="translate(562,634)" d="m0 0 5 1v55h-5z" fill="#FEFEFE"/>
<path transform="translate(542,634)" d="m0 0 5 1v55h-5zm2 11 1 2z" fill="#FEFEFE"/>
<path transform="translate(954,672)" d="m0 0h19v7l-5 6-3 1h-10l-5-5 1-6z" fill="#28CC9D"/>
<path transform="translate(603,638)" d="m0 0h5v52h-5z" fill="#FEFEFE"/>
</svg>
